<svg xmlns="http://www.w3.org/2000/svg" width="549" height="166" viewBox="0 0 549 166" role="img" aria-label="Rung 4 ladder diagram"><style>.wire,.rail,.device{fill:none;stroke:#243b7a;stroke-width:1.45;vector-effect:non-scaling-stroke}.wire.active,.device.active{stroke:#15b84e;stroke-width:4}.rail{stroke:#243b7a;stroke-width:1.7}.junction{fill:#243b7a}.rung-index{font:14px Georgia,'Times New Roman',serif;fill:#243b7a}.label{font:13px Arial,'Segoe UI',sans-serif;fill:#111;text-anchor:middle}.op{font:700 10px Arial,'Segoe UI',sans-serif;fill:#243b7a;text-anchor:middle}.mnemonic{fill:#243b7a}.arg-label{font:11px Arial,'Segoe UI',sans-serif;fill:#243b7a}.arg-value{font:12px Arial,'Segoe UI',sans-serif;fill:#111;text-anchor:end}.block{fill:#fff;stroke:#243b7a;stroke-width:1.25}.divider{stroke:#243b7a;stroke-width:1}.unknown{fill:#fff8e8;stroke:#9a6b18}</style><line class="rail" x1="22" y1="0" x2="22" y2="166"/><line class="rail" x1="527" y1="0" x2="527" y2="166"/><line class="wire" x1="22" y1="42" x2="54" y2="42"/><line class="wire" x1="54" y1="42" x2="62" y2="42"/><line class="wire" x1="197" y1="42" x2="205" y2="42"/><title>XIC(z_sm1_finger_60s_window)</title><text class="label" x="129.5" y="25">z_sm1_finger_60s_window</text><line class="device" x1="119.5" y1="30" x2="119.5" y2="54"/><line class="device" x1="139.5" y1="30" x2="139.5" y2="54"/><line class="wire" x1="62" y1="42" x2="119.5" y2="42"/><line class="wire" x1="139.5" y1="42" x2="197" y2="42"/><line class="wire" x1="205" y1="42" x2="277" y2="42"/><line class="wire" x1="277" y1="42" x2="285" y2="42"/><line class="wire" x1="485" y1="42" x2="493" y2="42"/><title>Timer On Delay · TON(tm_sm1_finger_bypass,?,?)</title><rect class="block " x="287" y="-4.5" width="196" height="93" rx="1"/><text class="op mnemonic" x="385" y="8.5">TON</text><line class="divider" x1="287" y1="14.5" x2="483" y2="14.5"/><text class="arg-label" x="294" y="30.5">Timer</text><text class="arg-value" x="476" y="30.5">tm_sm1_finger_bypass</text><text class="arg-label" x="294" y="51.5">Preset</text><text class="arg-value" x="476" y="51.5">?</text><text class="arg-label" x="294" y="72.5">Accum</text><text class="arg-value" x="476" y="72.5">?</text><line class="wire" x1="285" y1="42" x2="287" y2="42"/><line class="wire" x1="483" y1="42" x2="485" y2="42"/><line class="wire" x1="493" y1="42" x2="527" y2="42"/></svg>