<svg xmlns="http://www.w3.org/2000/svg" width="807" height="146" viewBox="0 0 807 146" role="img" aria-label="Rung 6 ladder diagram"><style>.wire,.rail,.device{fill:none;stroke:#243b7a;stroke-width:1.45;vector-effect:non-scaling-stroke}.wire.active,.device.active{stroke:#15b84e;stroke-width:4}.rail{stroke:#243b7a;stroke-width:1.7}.junction{fill:#243b7a}.rung-index{font:14px Georgia,'Times New Roman',serif;fill:#243b7a}.label{font:13px Arial,'Segoe UI',sans-serif;fill:#111;text-anchor:middle}.op{font:700 10px Arial,'Segoe UI',sans-serif;fill:#243b7a;text-anchor:middle}.mnemonic{fill:#243b7a}.arg-label{font:11px Arial,'Segoe UI',sans-serif;fill:#243b7a}.arg-value{font:12px Arial,'Segoe UI',sans-serif;fill:#111;text-anchor:end}.block{fill:#fff;stroke:#243b7a;stroke-width:1.25}.divider{stroke:#243b7a;stroke-width:1}.unknown{fill:#fff8e8;stroke:#9a6b18}</style><line class="rail" x1="22" y1="0" x2="22" y2="146"/><line class="rail" x1="785" y1="0" x2="785" y2="146"/><line class="wire" x1="22" y1="42" x2="54" y2="42"/><line class="wire" x1="54" y1="42" x2="62" y2="42"/><line class="wire" x1="270.7368421052631" y1="42" x2="278.7368421052631" y2="42"/><title>Equal · EQU(z_sm1_finger_bypass_mode,2)</title><rect class="block " x="62.999999999999986" y="6" width="206.73684210526315" height="72" rx="1"/><text class="op mnemonic" x="166.36842105263156" y="19">EQU</text><line class="divider" x1="62.999999999999986" y1="25" x2="269.7368421052631" y2="25"/><text class="arg-label" x="69.99999999999999" y="41">Source A</text><text class="arg-value" x="262.7368421052631" y="41">z_sm1_finger_bypass_mode</text><text class="arg-label" x="69.99999999999999" y="62">Source B</text><text class="arg-value" x="262.7368421052631" y="62">2</text><line class="wire" x1="62" y1="42" x2="62.999999999999986" y2="42"/><line class="wire" x1="269.7368421052631" y1="42" x2="270.7368421052631" y2="42"/><line class="wire" x1="278.7368421052631" y1="42" x2="286.7368421052631" y2="42"/><line class="wire" x1="466" y1="42" x2="474" y2="42"/><title>XIC(f_auto_mode_manual_retry)</title><text class="label" x="376.36842105263156" y="25">f_auto_mode_manual_retry</text><line class="device" x1="366.36842105263156" y1="30" x2="366.36842105263156" y2="54"/><line class="device" x1="386.36842105263156" y1="30" x2="386.36842105263156" y2="54"/><line class="wire" x1="286.7368421052631" y1="42" x2="366.36842105263156" y2="42"/><line class="wire" x1="386.36842105263156" y1="42" x2="466" y2="42"/><line class="wire" x1="474" y1="42" x2="546" y2="42"/><line class="wire" x1="546" y1="42" x2="554" y2="42"/><line class="wire" x1="743" y1="42" x2="751" y2="42"/><title>OTL(z_sm1_finger_retry_seen)</title><text class="label" x="648.5" y="25">z_sm1_finger_retry_seen</text><path class="device" d="M 633.5 27 Q 623.5 42 633.5 57 M 663.5 27 Q 673.5 42 663.5 57"/><line class="wire" x1="554" y1="42" x2="627.5" y2="42"/><line class="wire" x1="669.5" y1="42" x2="743" y2="42"/><text class="label" x="648.5" y="46">L</text><line class="wire" x1="751" y1="42" x2="785" y2="42"/></svg>