<svg xmlns="http://www.w3.org/2000/svg" width="1065" height="126" viewBox="0 0 1065 126" role="img" aria-label="Rung 2 ladder diagram"><style>.wire,.rail,.device{fill:none;stroke:#243b7a;stroke-width:1.45;vector-effect:non-scaling-stroke}.wire.active,.device.active{stroke:#15b84e;stroke-width:4}.rail{stroke:#243b7a;stroke-width:1.7}.junction{fill:#243b7a}.rung-index{font:14px Georgia,'Times New Roman',serif;fill:#243b7a}.label{font:13px Arial,'Segoe UI',sans-serif;fill:#111;text-anchor:middle}.op{font:700 10px Arial,'Segoe UI',sans-serif;fill:#243b7a;text-anchor:middle}.mnemonic{fill:#243b7a}.arg-label{font:11px Arial,'Segoe UI',sans-serif;fill:#243b7a}.arg-value{font:12px Arial,'Segoe UI',sans-serif;fill:#111;text-anchor:end}.block{fill:#fff;stroke:#243b7a;stroke-width:1.25}.divider{stroke:#243b7a;stroke-width:1}.unknown{fill:#fff8e8;stroke:#9a6b18}</style><text class="rung-index" x="18" y="46">2</text><line class="rail" x1="72" y1="0" x2="72" y2="126"/><line class="rail" x1="1043" y1="0" x2="1043" y2="126"/><line class="wire" x1="72" y1="42" x2="104" y2="42"/><line class="wire" x1="104" y1="42" x2="112" y2="42"/><line class="wire" x1="375.0367775831874" y1="42" x2="383.0367775831874" y2="42"/><title>XIC(ui_sm1_finger_retry_bypass_off_req)</title><text class="label" x="243.5183887915937" y="25">ui_sm1_finger_retry_bypass_off_req</text><line class="device" x1="233.5183887915937" y1="30" x2="233.5183887915937" y2="54"/><line class="device" x1="253.5183887915937" y1="30" x2="253.5183887915937" y2="54"/><line class="wire" x1="112" y1="42" x2="233.5183887915937" y2="42"/><line class="wire" x1="253.5183887915937" y1="42" x2="375.0367775831874" y2="42"/><line class="wire" x1="383.0367775831874" y1="42" x2="391.0367775831874" y2="42"/><line class="wire" x1="661" y1="42" x2="669" y2="42"/><text class="label" x="526.0183887915937" y="18">ons_sm1_finger_retry_bypass_off_req</text><rect class="block" x="503.0183887915937" y="27" width="46" height="30"/><text class="op" x="526.0183887915937" y="45">ONS</text><line class="wire" x1="391.0367775831874" y1="42" x2="503.0183887915937" y2="42"/><line class="wire" x1="549.0183887915937" y1="42" x2="661" y2="42"/><line class="wire" x1="669" y1="42" x2="741" y2="42"/><line class="wire" x1="741" y1="42" x2="749" y2="42"/><line class="wire" x1="1001" y1="42" x2="1009" y2="42"/><title>OTU(z_sm1_finger_retry_bypass_enable)</title><text class="label" x="875" y="25">z_sm1_finger_retry_bypass_enable</text><path class="device" d="M 860 27 Q 850 42 860 57 M 890 27 Q 900 42 890 57"/><line class="wire" x1="749" y1="42" x2="854" y2="42"/><line class="wire" x1="896" y1="42" x2="1001" y2="42"/><text class="label" x="875" y="46">U</text><line class="wire" x1="1009" y1="42" x2="1043" y2="42"/></svg>