<svg xmlns="http://www.w3.org/2000/svg" width="1040" height="142" viewBox="0 0 1040 142" role="img" aria-label="Rung 25A ladder diagram"><defs><marker id="arrow-left" viewBox="0 0 8 8" refX="7" refY="4" markerWidth="7" markerHeight="7" orient="auto"><path d="M 8 0 L 0 4 L 8 8" fill="none" stroke="#243b7a" stroke-width="1.2"/></marker></defs><style>.wire,.rail,.device{fill:none;stroke:#243b7a;stroke-width:1.45;vector-effect:non-scaling-stroke}.wire.active,.device.active{stroke:#15b84e;stroke-width:4}.rail{stroke:#243b7a;stroke-width:1.7}.junction{fill:#243b7a}.rung-index{font:14px Georgia,'Times New Roman',serif;fill:#243b7a}.label{font:13px Arial,'Segoe UI',sans-serif;fill:#111;text-anchor:middle}.op{font:700 10px Arial,'Segoe UI',sans-serif;fill:#243b7a;text-anchor:middle}.jsr-description,.sfr-description{font:11px Arial,'Segoe UI',sans-serif;fill:#243b7a;text-anchor:middle}.jsr-block,.sfr-block{stroke-width:1.45}.mnemonic{fill:#243b7a}.arg-label{font:11px Arial,'Segoe UI',sans-serif;fill:#243b7a}.arg-value{font:12px Arial,'Segoe UI',sans-serif;fill:#111;text-anchor:end}.block{fill:#fff;stroke:#243b7a;stroke-width:1.25}.divider{stroke:#243b7a;stroke-width:1}.unknown{fill:#fff8e8;stroke:#9a6b18}</style><line class="rail" x1="22" y1="0" x2="22" y2="142"/><line class="rail" x1="1018" y1="0" x2="1018" y2="142"/><line class="wire" x1="22" y1="68" x2="54" y2="68"/><line class="wire" x1="54" y1="68" x2="62" y2="68"/><line class="wire" x1="195" y1="68" x2="203" y2="68"/><title>XIC(z_ui_i_home_all)</title><text class="label" x="128.5" y="51">z_ui_i_home_all</text><line class="device" x1="118.5" y1="56" x2="118.5" y2="80"/><line class="device" x1="138.5" y1="56" x2="138.5" y2="80"/><line class="wire" x1="62" y1="68" x2="118.5" y2="68"/><line class="wire" x1="138.5" y1="68" x2="195" y2="68"/><line class="wire" x1="203" y1="68" x2="800" y2="68"/><line class="wire" x1="800" y1="68" x2="808" y2="68"/><line class="wire" x1="976" y1="68" x2="984" y2="68"/><title>OTU(f_reject_count_armed)</title><text class="label" x="892" y="51">f_reject_count_armed</text><path class="device" d="M 877 53 Q 867 68 877 83 M 907 53 Q 917 68 907 83"/><line class="wire" x1="808" y1="68" x2="871" y2="68"/><line class="wire" x1="913" y1="68" x2="976" y2="68"/><text class="label" x="892" y="72">U</text><line class="wire" x1="984" y1="68" x2="1018" y2="68"/></svg>