<svg xmlns="http://www.w3.org/2000/svg" width="1040" height="2192" viewBox="0 0 1040 2192" role="img" aria-label="Rung 48 ladder diagram"><defs><marker id="arrow-left" viewBox="0 0 8 8" refX="7" refY="4" markerWidth="7" markerHeight="7" orient="auto"><path d="M 8 0 L 0 4 L 8 8" fill="none" stroke="#243b7a" stroke-width="1.2"/></marker></defs><style>.wire,.rail,.device{fill:none;stroke:#243b7a;stroke-width:1.45;vector-effect:non-scaling-stroke}.wire.active,.device.active{stroke:#15b84e;stroke-width:4}.rail{stroke:#243b7a;stroke-width:1.7}.junction{fill:#243b7a}.rung-index{font:14px Georgia,'Times New Roman',serif;fill:#243b7a}.label{font:13px Arial,'Segoe UI',sans-serif;fill:#111;text-anchor:middle}.op{font:700 10px Arial,'Segoe UI',sans-serif;fill:#243b7a;text-anchor:middle}.jsr-description,.sfr-description{font:11px Arial,'Segoe UI',sans-serif;fill:#243b7a;text-anchor:middle}.jsr-block,.sfr-block{stroke-width:1.45}.mnemonic{fill:#243b7a}.arg-label{font:11px Arial,'Segoe UI',sans-serif;fill:#243b7a}.arg-value{font:12px Arial,'Segoe UI',sans-serif;fill:#111;text-anchor:end}.block{fill:#fff;stroke:#243b7a;stroke-width:1.25}.divider{stroke:#243b7a;stroke-width:1}.unknown{fill:#fff8e8;stroke:#9a6b18}</style><line class="rail" x1="22" y1="0" x2="22" y2="2192"/><line class="rail" x1="1018" y1="0" x2="1018" y2="2192"/><line class="wire" x1="22" y1="68" x2="54" y2="68"/><line class="wire" x1="54" y1="68" x2="54" y2="548"/><line class="wire" x1="419" y1="68" x2="419" y2="548"/><circle class="junction" cx="54" cy="68" r="3"/><circle class="junction" cx="419" cy="68" r="3"/><line class="wire" x1="54" y1="68" x2="62" y2="68"/><line class="wire" x1="411" y1="68" x2="419" y2="68"/><title>XIC(i_reject_loaded)</title><text class="label" x="236.5" y="51">i_reject_loaded</text><line class="device" x1="226.5" y1="56" x2="226.5" y2="80"/><line class="device" x1="246.5" y1="56" x2="246.5" y2="80"/><line class="wire" x1="62" y1="68" x2="226.5" y2="68"/><line class="wire" x1="246.5" y1="68" x2="411" y2="68"/><circle class="junction" cx="54" cy="228" r="3"/><circle class="junction" cx="419" cy="228" r="3"/><line class="wire" x1="54" y1="228" x2="62" y2="228"/><line class="wire" x1="217.45533141210376" y1="228" x2="225.45533141210376" y2="228"/><title>XIC(f_reject_st1_done)</title><text class="label" x="139.72766570605188" y="211">f_reject_st1_done</text><line class="device" x1="129.72766570605188" y1="216" x2="129.72766570605188" y2="240"/><line class="device" x1="149.72766570605188" y1="216" x2="149.72766570605188" y2="240"/><line class="wire" x1="62" y1="228" x2="129.72766570605188" y2="228"/><line class="wire" x1="149.72766570605188" y1="228" x2="217.45533141210376" y2="228"/><line class="wire" x1="225.45533141210376" y1="228" x2="233.45533141210376" y2="228"/><line class="wire" x1="411" y1="228" x2="419" y2="228"/><title>XIC(i_clear_of_station_1)</title><text class="label" x="322.2276657060519" y="211">i_clear_of_station_1</text><line class="device" x1="312.2276657060519" y1="216" x2="312.2276657060519" y2="240"/><line class="device" x1="332.2276657060519" y1="216" x2="332.2276657060519" y2="240"/><line class="wire" x1="233.45533141210376" y1="228" x2="312.2276657060519" y2="228"/><line class="wire" x1="332.2276657060519" y1="228" x2="411" y2="228"/><circle class="junction" cx="54" cy="388" r="3"/><circle class="junction" cx="419" cy="388" r="3"/><line class="wire" x1="54" y1="388" x2="62" y2="388"/><line class="wire" x1="217.45533141210376" y1="388" x2="225.45533141210376" y2="388"/><title>XIC(f_reject_st2_done)</title><text class="label" x="139.72766570605188" y="371">f_reject_st2_done</text><line class="device" x1="129.72766570605188" y1="376" x2="129.72766570605188" y2="400"/><line class="device" x1="149.72766570605188" y1="376" x2="149.72766570605188" y2="400"/><line class="wire" x1="62" y1="388" x2="129.72766570605188" y2="388"/><line class="wire" x1="149.72766570605188" y1="388" x2="217.45533141210376" y2="388"/><line class="wire" x1="225.45533141210376" y1="388" x2="233.45533141210376" y2="388"/><line class="wire" x1="411" y1="388" x2="419" y2="388"/><title>XIC(i_clear_of_station_2)</title><text class="label" x="322.2276657060519" y="371">i_clear_of_station_2</text><line class="device" x1="312.2276657060519" y1="376" x2="312.2276657060519" y2="400"/><line class="device" x1="332.2276657060519" y1="376" x2="332.2276657060519" y2="400"/><line class="wire" x1="233.45533141210376" y1="388" x2="312.2276657060519" y2="388"/><line class="wire" x1="332.2276657060519" y1="388" x2="411" y2="388"/><circle class="junction" cx="54" cy="548" r="3"/><circle class="junction" cx="419" cy="548" r="3"/><line class="wire" x1="54" y1="548" x2="62" y2="548"/><line class="wire" x1="411" y1="548" x2="419" y2="548"/><title>XIC(z_ui_i_home_all)</title><text class="label" x="236.5" y="531">z_ui_i_home_all</text><line class="device" x1="226.5" y1="536" x2="226.5" y2="560"/><line class="device" x1="246.5" y1="536" x2="246.5" y2="560"/><line class="wire" x1="62" y1="548" x2="226.5" y2="548"/><line class="wire" x1="246.5" y1="548" x2="411" y2="548"/><line class="wire" x1="419" y1="68" x2="910" y2="68"/><line class="wire" x1="910" y1="68" x2="910" y2="598"/><path class="wire continuation-mark" d="M 906 79 L 910 84 L 914 79"/><path class="wire continuation-mark" d="M 906 103 L 910 108 L 914 103"/><path class="wire continuation-mark" d="M 906 127 L 910 132 L 914 127"/><path class="wire continuation-mark" d="M 906 151 L 910 156 L 914 151"/><path class="wire continuation-mark" d="M 906 175 L 910 180 L 914 175"/><path class="wire continuation-mark" d="M 906 199 L 910 204 L 914 199"/><path class="wire continuation-mark" d="M 906 223 L 910 228 L 914 223"/><path class="wire continuation-mark" d="M 906 247 L 910 252 L 914 247"/><path class="wire continuation-mark" d="M 906 271 L 910 276 L 914 271"/><path class="wire continuation-mark" d="M 906 295 L 910 300 L 914 295"/><path class="wire continuation-mark" d="M 906 319 L 910 324 L 914 319"/><path class="wire continuation-mark" d="M 906 343 L 910 348 L 914 343"/><path class="wire continuation-mark" d="M 906 367 L 910 372 L 914 367"/><path class="wire continuation-mark" d="M 906 391 L 910 396 L 914 391"/><path class="wire continuation-mark" d="M 906 415 L 910 420 L 914 415"/><path class="wire continuation-mark" d="M 906 439 L 910 444 L 914 439"/><path class="wire continuation-mark" d="M 906 463 L 910 468 L 914 463"/><path class="wire continuation-mark" d="M 906 487 L 910 492 L 914 487"/><path class="wire continuation-mark" d="M 906 511 L 910 516 L 914 511"/><path class="wire continuation-mark" d="M 906 535 L 910 540 L 914 535"/><path class="wire continuation-mark" d="M 906 559 L 910 564 L 914 559"/><path class="wire continuation-mark" d="M 906 583 L 910 588 L 914 583"/><line class="wire continuation" x1="910" y1="598" x2="130" y2="598"/><path class="wire continuation-mark" d="M 903 594 L 898 598 L 903 602"/><path class="wire continuation-mark" d="M 879 594 L 874 598 L 879 602"/><path class="wire continuation-mark" d="M 855 594 L 850 598 L 855 602"/><path class="wire continuation-mark" d="M 831 594 L 826 598 L 831 602"/><path class="wire continuation-mark" d="M 807 594 L 802 598 L 807 602"/><path class="wire continuation-mark" d="M 783 594 L 778 598 L 783 602"/><path class="wire continuation-mark" d="M 759 594 L 754 598 L 759 602"/><path class="wire continuation-mark" d="M 735 594 L 730 598 L 735 602"/><path class="wire continuation-mark" d="M 711 594 L 706 598 L 711 602"/><path class="wire continuation-mark" d="M 687 594 L 682 598 L 687 602"/><path class="wire continuation-mark" d="M 663 594 L 658 598 L 663 602"/><path class="wire continuation-mark" d="M 639 594 L 634 598 L 639 602"/><path class="wire continuation-mark" d="M 615 594 L 610 598 L 615 602"/><path class="wire continuation-mark" d="M 591 594 L 586 598 L 591 602"/><path class="wire continuation-mark" d="M 567 594 L 562 598 L 567 602"/><path class="wire continuation-mark" d="M 543 594 L 538 598 L 543 602"/><path class="wire continuation-mark" d="M 519 594 L 514 598 L 519 602"/><path class="wire continuation-mark" d="M 495 594 L 490 598 L 495 602"/><path class="wire continuation-mark" d="M 471 594 L 466 598 L 471 602"/><path class="wire continuation-mark" d="M 447 594 L 442 598 L 447 602"/><path class="wire continuation-mark" d="M 423 594 L 418 598 L 423 602"/><path class="wire continuation-mark" d="M 399 594 L 394 598 L 399 602"/><path class="wire continuation-mark" d="M 375 594 L 370 598 L 375 602"/><path class="wire continuation-mark" d="M 351 594 L 346 598 L 351 602"/><path class="wire continuation-mark" d="M 327 594 L 322 598 L 327 602"/><path class="wire continuation-mark" d="M 303 594 L 298 598 L 303 602"/><path class="wire continuation-mark" d="M 279 594 L 274 598 L 279 602"/><path class="wire continuation-mark" d="M 255 594 L 250 598 L 255 602"/><path class="wire continuation-mark" d="M 231 594 L 226 598 L 231 602"/><path class="wire continuation-mark" d="M 207 594 L 202 598 L 207 602"/><path class="wire continuation-mark" d="M 183 594 L 178 598 L 183 602"/><path class="wire continuation-mark" d="M 159 594 L 154 598 L 159 602"/><line class="wire" x1="130" y1="598" x2="130" y2="684"/><line class="wire" x1="130" y1="684" x2="605" y2="684"/><line class="wire" x1="605" y1="684" x2="605" y2="2124"/><line class="wire" x1="984" y1="684" x2="984" y2="2124"/><circle class="junction" cx="605" cy="684" r="3"/><circle class="junction" cx="984" cy="684" r="3"/><line class="wire" x1="605" y1="684" x2="613" y2="684"/><line class="wire" x1="976" y1="684" x2="984" y2="684"/><title>OTE(z_signal_r2_sm1_reject_complete)</title><text class="label" x="794.5" y="667">z_signal_r2_sm1_reject_complete</text><path class="device" d="M 779.5 669 Q 769.5 684 779.5 699 M 809.5 669 Q 819.5 684 809.5 699"/><line class="wire" x1="613" y1="684" x2="773.5" y2="684"/><line class="wire" x1="815.5" y1="684" x2="976" y2="684"/><text class="label" x="794.5" y="688"></text><circle class="junction" cx="605" cy="844" r="3"/><circle class="junction" cx="984" cy="844" r="3"/><line class="wire" x1="605" y1="844" x2="613" y2="844"/><line class="wire" x1="976" y1="844" x2="984" y2="844"/><title>OTE(z_signal_r2_sm2_reject_complete)</title><text class="label" x="794.5" y="827">z_signal_r2_sm2_reject_complete</text><path class="device" d="M 779.5 829 Q 769.5 844 779.5 859 M 809.5 829 Q 819.5 844 809.5 859"/><line class="wire" x1="613" y1="844" x2="773.5" y2="844"/><line class="wire" x1="815.5" y1="844" x2="976" y2="844"/><text class="label" x="794.5" y="848"></text><circle class="junction" cx="605" cy="1004" r="3"/><circle class="junction" cx="984" cy="1004" r="3"/><line class="wire" x1="605" y1="1004" x2="605" y2="1164"/><line class="wire" x1="776.1274238227147" y1="1004" x2="776.1274238227147" y2="1164"/><circle class="junction" cx="605" cy="1004" r="3"/><circle class="junction" cx="776.1274238227147" cy="1004" r="3"/><line class="wire" x1="605" y1="1004" x2="613" y2="1004"/><line class="wire" x1="768.1274238227147" y1="1004" x2="776.1274238227147" y2="1004"/><title>XIC(f_reject_st1_done)</title><text class="label" x="690.5637119113574" y="987">f_reject_st1_done</text><line class="device" x1="680.5637119113574" y1="992" x2="680.5637119113574" y2="1016"/><line class="device" x1="700.5637119113574" y1="992" x2="700.5637119113574" y2="1016"/><line class="wire" x1="613" y1="1004" x2="680.5637119113574" y2="1004"/><line class="wire" x1="700.5637119113574" y1="1004" x2="768.1274238227147" y2="1004"/><circle class="junction" cx="605" cy="1164" r="3"/><circle class="junction" cx="776.1274238227147" cy="1164" r="3"/><line class="wire" x1="605" y1="1164" x2="613" y2="1164"/><line class="wire" x1="768.1274238227147" y1="1164" x2="776.1274238227147" y2="1164"/><title>XIC(z_ui_i_home_all)</title><text class="label" x="690.5637119113574" y="1147">z_ui_i_home_all</text><line class="device" x1="680.5637119113574" y1="1152" x2="680.5637119113574" y2="1176"/><line class="device" x1="700.5637119113574" y1="1152" x2="700.5637119113574" y2="1176"/><line class="wire" x1="613" y1="1164" x2="680.5637119113574" y2="1164"/><line class="wire" x1="700.5637119113574" y1="1164" x2="768.1274238227147" y2="1164"/><line class="wire" x1="776.1274238227147" y1="1004" x2="784.1274238227147" y2="1004"/><line class="wire" x1="976" y1="1004" x2="984" y2="1004"/><title>OTU(z_signal_rejecting_sm1)</title><text class="label" x="880.0637119113574" y="987">z_signal_rejecting_sm1</text><path class="device" d="M 865.0637119113574 989 Q 855.0637119113574 1004 865.0637119113574 1019 M 895.0637119113574 989 Q 905.0637119113574 1004 895.0637119113574 1019"/><line class="wire" x1="784.1274238227147" y1="1004" x2="859.0637119113574" y2="1004"/><line class="wire" x1="901.0637119113574" y1="1004" x2="976" y2="1004"/><text class="label" x="880.0637119113574" y="1008">U</text><circle class="junction" cx="605" cy="1324" r="3"/><circle class="junction" cx="984" cy="1324" r="3"/><line class="wire" x1="605" y1="1324" x2="605" y2="1484"/><line class="wire" x1="776.1274238227147" y1="1324" x2="776.1274238227147" y2="1484"/><circle class="junction" cx="605" cy="1324" r="3"/><circle class="junction" cx="776.1274238227147" cy="1324" r="3"/><line class="wire" x1="605" y1="1324" x2="613" y2="1324"/><line class="wire" x1="768.1274238227147" y1="1324" x2="776.1274238227147" y2="1324"/><title>XIC(f_reject_st2_done)</title><text class="label" x="690.5637119113574" y="1307">f_reject_st2_done</text><line class="device" x1="680.5637119113574" y1="1312" x2="680.5637119113574" y2="1336"/><line class="device" x1="700.5637119113574" y1="1312" x2="700.5637119113574" y2="1336"/><line class="wire" x1="613" y1="1324" x2="680.5637119113574" y2="1324"/><line class="wire" x1="700.5637119113574" y1="1324" x2="768.1274238227147" y2="1324"/><circle class="junction" cx="605" cy="1484" r="3"/><circle class="junction" cx="776.1274238227147" cy="1484" r="3"/><line class="wire" x1="605" y1="1484" x2="613" y2="1484"/><line class="wire" x1="768.1274238227147" y1="1484" x2="776.1274238227147" y2="1484"/><title>XIC(z_ui_i_home_all)</title><text class="label" x="690.5637119113574" y="1467">z_ui_i_home_all</text><line class="device" x1="680.5637119113574" y1="1472" x2="680.5637119113574" y2="1496"/><line class="device" x1="700.5637119113574" y1="1472" x2="700.5637119113574" y2="1496"/><line class="wire" x1="613" y1="1484" x2="680.5637119113574" y2="1484"/><line class="wire" x1="700.5637119113574" y1="1484" x2="768.1274238227147" y2="1484"/><line class="wire" x1="776.1274238227147" y1="1324" x2="784.1274238227147" y2="1324"/><line class="wire" x1="976" y1="1324" x2="984" y2="1324"/><title>OTU(z_signal_rejecting_sm2)</title><text class="label" x="880.0637119113574" y="1307">z_signal_rejecting_sm2</text><path class="device" d="M 865.0637119113574 1309 Q 855.0637119113574 1324 865.0637119113574 1339 M 895.0637119113574 1309 Q 905.0637119113574 1324 895.0637119113574 1339"/><line class="wire" x1="784.1274238227147" y1="1324" x2="859.0637119113574" y2="1324"/><line class="wire" x1="901.0637119113574" y1="1324" x2="976" y2="1324"/><text class="label" x="880.0637119113574" y="1328">U</text><circle class="junction" cx="605" cy="1644" r="3"/><circle class="junction" cx="984" cy="1644" r="3"/><line class="wire" x1="605" y1="1644" x2="613" y2="1644"/><line class="wire" x1="976" y1="1644" x2="984" y2="1644"/><title>OTU(z_i_reject_rb2)</title><text class="label" x="794.5" y="1627">z_i_reject_rb2</text><path class="device" d="M 779.5 1629 Q 769.5 1644 779.5 1659 M 809.5 1629 Q 819.5 1644 809.5 1659"/><line class="wire" x1="613" y1="1644" x2="773.5" y2="1644"/><line class="wire" x1="815.5" y1="1644" x2="976" y2="1644"/><text class="label" x="794.5" y="1648">U</text><circle class="junction" cx="605" cy="1804" r="3"/><circle class="junction" cx="984" cy="1804" r="3"/><line class="wire" x1="605" y1="1804" x2="613" y2="1804"/><line class="wire" x1="976" y1="1804" x2="984" y2="1804"/><title>OTU(z_i_reject)</title><text class="label" x="794.5" y="1787">z_i_reject</text><path class="device" d="M 779.5 1789 Q 769.5 1804 779.5 1819 M 809.5 1789 Q 819.5 1804 809.5 1819"/><line class="wire" x1="613" y1="1804" x2="773.5" y2="1804"/><line class="wire" x1="815.5" y1="1804" x2="976" y2="1804"/><text class="label" x="794.5" y="1808">U</text><circle class="junction" cx="605" cy="1964" r="3"/><circle class="junction" cx="984" cy="1964" r="3"/><line class="wire" x1="605" y1="1964" x2="613" y2="1964"/><line class="wire" x1="976" y1="1964" x2="984" y2="1964"/><title>OTU(f_reject_st1_done)</title><text class="label" x="794.5" y="1947">f_reject_st1_done</text><path class="device" d="M 779.5 1949 Q 769.5 1964 779.5 1979 M 809.5 1949 Q 819.5 1964 809.5 1979"/><line class="wire" x1="613" y1="1964" x2="773.5" y2="1964"/><line class="wire" x1="815.5" y1="1964" x2="976" y2="1964"/><text class="label" x="794.5" y="1968">U</text><circle class="junction" cx="605" cy="2124" r="3"/><circle class="junction" cx="984" cy="2124" r="3"/><line class="wire" x1="605" y1="2124" x2="613" y2="2124"/><line class="wire" x1="976" y1="2124" x2="984" y2="2124"/><title>OTU(f_reject_st2_done)</title><text class="label" x="794.5" y="2107">f_reject_st2_done</text><path class="device" d="M 779.5 2109 Q 769.5 2124 779.5 2139 M 809.5 2109 Q 819.5 2124 809.5 2139"/><line class="wire" x1="613" y1="2124" x2="773.5" y2="2124"/><line class="wire" x1="815.5" y1="2124" x2="976" y2="2124"/><text class="label" x="794.5" y="2128">U</text><line class="wire" x1="984" y1="684" x2="1018" y2="684"/></svg>