<svg xmlns="http://www.w3.org/2000/svg" width="920" height="142" viewBox="0 0 920 142" role="img" aria-label="Rung 6 ladder diagram"><defs><marker id="arrow-left" viewBox="0 0 8 8" refX="7" refY="4" markerWidth="7" markerHeight="7" orient="auto"><path d="M 8 0 L 0 4 L 8 8" fill="none" stroke="#243b7a" stroke-width="1.2"/></marker></defs><style>.wire,.rail,.device{fill:none;stroke:#243b7a;stroke-width:1.45;vector-effect:non-scaling-stroke}.wire.active,.device.active{stroke:#15b84e;stroke-width:4}.rail{stroke:#243b7a;stroke-width:1.7}.junction{fill:#243b7a}.rung-index{font:14px Georgia,'Times New Roman',serif;fill:#243b7a}.label{font:13px Arial,'Segoe UI',sans-serif;fill:#111;text-anchor:middle}.op{font:700 10px Arial,'Segoe UI',sans-serif;fill:#243b7a;text-anchor:middle}.jsr-description,.sfr-description{font:11px Arial,'Segoe UI',sans-serif;fill:#243b7a;text-anchor:middle}.jsr-block,.sfr-block{stroke-width:1.45}.mnemonic{fill:#243b7a}.arg-label{font:11px Arial,'Segoe UI',sans-serif;fill:#243b7a}.arg-value{font:12px Arial,'Segoe UI',sans-serif;fill:#111;text-anchor:end}.block{fill:#fff;stroke:#243b7a;stroke-width:1.25}.divider{stroke:#243b7a;stroke-width:1}.unknown{fill:#fff8e8;stroke:#9a6b18}</style><line class="rail" x1="22" y1="0" x2="22" y2="142"/><line class="rail" x1="898" y1="0" x2="898" y2="142"/><line class="wire" x1="22" y1="68" x2="54" y2="68"/><line class="wire" x1="54" y1="68" x2="62" y2="68"/><line class="wire" x1="188" y1="68" x2="196" y2="68"/><title>XIC(f_strip_failed)</title><text class="label" x="125" y="51">f_strip_failed</text><line class="device" x1="115" y1="56" x2="115" y2="80"/><line class="device" x1="135" y1="56" x2="135" y2="80"/><line class="wire" x1="62" y1="68" x2="115" y2="68"/><line class="wire" x1="135" y1="68" x2="188" y2="68"/><line class="wire" x1="196" y1="68" x2="589" y2="68"/><line class="wire" x1="589" y1="68" x2="597" y2="68"/><line class="wire" x1="856" y1="68" x2="864" y2="68"/><title>OTE(f_sm1_finger_retry_failed_pending)</title><text class="label" x="726.5" y="51">f_sm1_finger_retry_failed_pending</text><path class="device" d="M 711.5 53 Q 701.5 68 711.5 83 M 741.5 53 Q 751.5 68 741.5 83"/><line class="wire" x1="597" y1="68" x2="705.5" y2="68"/><line class="wire" x1="747.5" y1="68" x2="856" y2="68"/><text class="label" x="726.5" y="72"></text><line class="wire" x1="864" y1="68" x2="898" y2="68"/></svg>